<?xml version="1.0" encoding="UTF-8" standalone="no"?>
<!-- Created with Inkscape (http://www.inkscape.org/) -->

<svg
   width="107.37216mm"
   height="125.4435mm"
   viewBox="0 0 107.37216 125.4435"
   version="1.1"
   id="svg5"
   xml:space="preserve"
   xmlns:inkscape="http://www.inkscape.org/namespaces/inkscape"
   xmlns:sodipodi="http://sodipodi.sourceforge.net/DTD/sodipodi-0.dtd"
   xmlns="http://www.w3.org/2000/svg"
   xmlns:svg="http://www.w3.org/2000/svg"><sodipodi:namedview
     id="namedview7"
     pagecolor="#ffffff"
     bordercolor="#000000"
     borderopacity="0.25"
     inkscape:showpageshadow="2"
     inkscape:pageopacity="0.0"
     inkscape:pagecheckerboard="0"
     inkscape:deskcolor="#d1d1d1"
     inkscape:document-units="mm"
     showgrid="false" /><defs
     id="defs2" /><g
     inkscape:label="Capa 1"
     inkscape:groupmode="layer"
     id="layer1"
     transform="translate(-6.7148539,-8.8253972)"><path
       style="fill:#ff5555;fill-rule:evenodd;stroke-width:0.184701"
       d="m 17.520393,134.14602 c -4.19493,-0.73913 -8.1626996,-3.8911 -9.8783796,-7.84733 -0.9794497,-2.25856 -0.9266597,0.87179 -0.9266597,-54.948689 V 19.541232 l 0.45398,-1.385261 c 1.4636097,-4.466058 4.9377993,-7.742738 9.5198993,-8.9786846 1.24432,-0.3356364 2.51451,-0.3487418 33.80037,-0.3487418 36.86197,0 33.40957,-0.1476809 36.9403,1.5801694 1.75056,0.85668 2.60018,1.45914 4.15325,2.945018 0.73472,0.702928 4.49413,4.201713 5.42743,5.051161 0.31785,0.289286 1.201273,1.120639 1.963163,1.84745 0.7619,0.726811 2.507334,2.359727 3.878734,3.628702 1.37141,1.268975 2.62003,2.432399 2.7747,2.585386 0.15468,0.152988 0.94428,0.895734 1.75467,1.650548 4.48765,4.179896 5.36255,5.248963 6.21131,7.589856 l 0.43376,1.196338 0.0509,41.834886 c 0.031,25.494761 -0.0178,42.556301 -0.12502,43.681901 -0.25258,2.65263 -0.82759,4.26124 -2.24447,6.27893 -1.59258,2.26787 -4.02818,4.0443 -7.00878,5.11193 l -1.20056,0.43003 -42.573697,0.0258 c -23.41554,0.0142 -42.94772,-0.0401 -43.40485,-0.12064 z"
       id="path440"
       sodipodi:nodetypes="ssscssssssssssscscsscsss" /><text
       xml:space="preserve"
       style="font-weight:bold;font-size:30.4143px;font-family:'DecoType Naskh';-inkscape-font-specification:'DecoType Naskh Bold';fill:#ececec;fill-rule:evenodd;stroke-width:0.158408"
       x="17.597363"
       y="52.18261"
       id="text691"
       transform="scale(0.79625004,1.2558869)"><tspan
         id="tspan689"
         style="font-style:normal;font-variant:normal;font-weight:bold;font-stretch:normal;font-family:'Franklin Gothic Heavy';-inkscape-font-specification:'Franklin Gothic Heavy,  Bold';fill:#ececec;stroke-width:0.158408"
         x="17.597363"
         y="52.18261"
         sodipodi:role="line">PDF</tspan></text><text
       xml:space="preserve"
       style="font-weight:bold;font-size:37.5948px;font-family:'DecoType Naskh';-inkscape-font-specification:'DecoType Naskh Bold';fill:#ececec;fill-rule:evenodd;stroke-width:0.195806"
       x="15.77301"
       y="83.56971"
       id="text691-2"
       transform="scale(0.80976178,1.2349311)"><tspan
         id="tspan689-7"
         style="font-style:normal;font-variant:normal;font-weight:bold;font-stretch:normal;font-family:'Franklin Gothic Heavy';-inkscape-font-specification:'Franklin Gothic Heavy,  Bold';fill:#ececec;stroke-width:0.195806"
         x="15.77301"
         y="83.56971"
         sodipodi:role="line">WOOW</tspan></text></g></svg>
